<mxfile host="app.diagrams.net" modified="2021-01-02T07:01:57.425Z" agent="5.0 (Windows)" etag="LRf37Ho8i8qp_a74dGDf" version="14.1.7" type="github">
  <diagram name="Page-1" id="13e1069c-82ec-6db2-03f1-153e76fe0fe0">
    <mxGraphModel dx="1157" dy="639" grid="1" gridSize="10" guides="1" tooltips="1" connect="1" arrows="1" fold="1" page="1" pageScale="1" pageWidth="1100" pageHeight="850" background="#ffffff" math="0" shadow="0">
      <root>
        <mxCell id="0" />
        <mxCell id="1" parent="0" />
        <mxCell id="asdhkFeUrT_0oHcq7WQL-1" value="سفارش غذا" style="shape=note;whiteSpace=wrap;html=1;size=14;verticalAlign=top;align=left;spacingTop=-6;rounded=0;shadow=0;comic=0;labelBackgroundColor=none;strokeWidth=1;fontFamily=Verdana;fontSize=12" vertex="1" parent="1">
          <mxGeometry width="100" height="35" as="geometry" />
        </mxCell>
        <mxCell id="asdhkFeUrT_0oHcq7WQL-2" value="" style="shape=umlLifeline;participant=umlActor;perimeter=lifelinePerimeter;whiteSpace=wrap;html=1;container=1;collapsible=0;recursiveResize=0;verticalAlign=top;spacingTop=36;outlineConnect=0;" vertex="1" parent="1">
          <mxGeometry x="67" y="109" width="20" height="590" as="geometry" />
        </mxCell>
        <mxCell id="asdhkFeUrT_0oHcq7WQL-3" value="" style="html=1;points=[];perimeter=orthogonalPerimeter;rounded=0;shadow=0;comic=0;labelBackgroundColor=none;strokeWidth=1;fontFamily=Verdana;fontSize=12;align=center;" vertex="1" parent="1">
          <mxGeometry x="72" y="209" width="10" height="451" as="geometry" />
        </mxCell>
        <mxCell id="asdhkFeUrT_0oHcq7WQL-4" value="خریدار" style="text;html=1;align=center;verticalAlign=middle;resizable=0;points=[];autosize=1;" vertex="1" parent="1">
          <mxGeometry x="57" y="70" width="40" height="20" as="geometry" />
        </mxCell>
        <mxCell id="asdhkFeUrT_0oHcq7WQL-5" value="سیستم" style="shape=umlLifeline;perimeter=lifelinePerimeter;whiteSpace=wrap;html=1;container=1;collapsible=0;recursiveResize=0;outlineConnect=0;" vertex="1" parent="1">
          <mxGeometry x="220" y="109" width="100" height="585" as="geometry" />
        </mxCell>
        <mxCell id="asdhkFeUrT_0oHcq7WQL-6" value="" style="html=1;points=[];perimeter=orthogonalPerimeter;rounded=0;shadow=0;comic=0;labelBackgroundColor=none;strokeWidth=1;fontFamily=Verdana;fontSize=12;align=center;" vertex="1" parent="asdhkFeUrT_0oHcq7WQL-5">
          <mxGeometry x="45" y="90" width="10" height="460" as="geometry" />
        </mxCell>
        <mxCell id="asdhkFeUrT_0oHcq7WQL-8" value="رستوران" style="shape=umlLifeline;perimeter=lifelinePerimeter;whiteSpace=wrap;html=1;container=1;collapsible=0;recursiveResize=0;outlineConnect=0;rounded=1;shadow=0;comic=0;labelBackgroundColor=none;strokeWidth=1;fontFamily=Verdana;fontSize=12;align=center;" vertex="1" parent="1">
          <mxGeometry x="400" y="259" width="100" height="440" as="geometry" />
        </mxCell>
        <mxCell id="asdhkFeUrT_0oHcq7WQL-9" value="" style="html=1;points=[];perimeter=orthogonalPerimeter;rounded=0;shadow=0;comic=0;labelBackgroundColor=none;strokeWidth=1;fontFamily=Verdana;fontSize=12;align=center;" vertex="1" parent="asdhkFeUrT_0oHcq7WQL-8">
          <mxGeometry x="45" y="300" width="10" height="90" as="geometry" />
        </mxCell>
        <mxCell id="asdhkFeUrT_0oHcq7WQL-10" value="" style="html=1;points=[];perimeter=orthogonalPerimeter;rounded=0;shadow=0;comic=0;labelBackgroundColor=none;strokeWidth=1;fontFamily=Verdana;fontSize=12;align=center;" vertex="1" parent="asdhkFeUrT_0oHcq7WQL-8">
          <mxGeometry x="45" y="60" width="10" height="41" as="geometry" />
        </mxCell>
      </root>
    </mxGraphModel>
  </diagram>
</mxfile>
